# xmcd CD database file
#
# Track frame offsets:
#	150
#	25740
#	35784
#	52166
#	78337
#	100442
#	130600
#	161017
#	199170
#	231510
#	263771
#	298579
#
# Disc length: 4318 seconds
#
# Revision: 0
# Processed by: cddbd v1.5.2PL0 Copyright (c) Steve Scherf et al.
# Submitted via: CDex 1.51
#
DISCID=ac10dc0c
DTITLE=Yanni - 20 years best choice - 3
DYEAR=1900
DGENRE=New Age
TTITLE0=Nightingale
TTITLE1=Prelude
TTITLE2=The Mermaid
TTITLE3=Highland
TTITLE4=Swept Away
TTITLE5=Dance With A Stranger
TTITLE6=Southern Exposure
TTITLE7=Deliverance
TTITLE8=Renegade
TTITLE9=The Rain Must Fall
TTITLE10=Niki Nana (we're one)
TTITLE11=Wishing Well
EXTD=
EXTT0=
EXTT1=
EXTT2=
EXTT3=
EXTT4=
EXTT5=
EXTT6=
EXTT7=
EXTT8=
EXTT9=
EXTT10=
EXTT11=
PLAYORDER=
